<svg id="Layer_1" data-name="Layer 1" xmlns="http://www.w3.org/2000/svg" viewBox="0 0 288 288"><defs><style>.cls-1{fill:#9bcbdd;}.cls-1,.cls-2,.cls-3,.cls-4,.cls-5{stroke:#353c51;stroke-linecap:round;}.cls-1,.cls-2,.cls-3,.cls-4,.cls-5,.cls-6{stroke-linejoin:round;stroke-width:4px;}.cls-2{fill:#353c51;opacity:0.25;}.cls-3{fill:#8f98a8;}.cls-4{fill:#fcfcfc;}.cls-5,.cls-6{fill:#33bcaf;}.cls-6{stroke:#fcfcfc;}</style></defs><title>Artboard 1</title><circle class="cls-1" cx="146" cy="138" r="105"/><path class="cls-2" d="M85,97V249.64A9.36,9.36,0,0,0,94.36,259H198.64a9.36,9.36,0,0,0,9.36-9.36V97Z"/><path class="cls-3" d="M207.5,83.36A9.36,9.36,0,0,0,198.14,74H93.86a9.36,9.36,0,0,0-9.36,9.36V92h123Z"/><path class="cls-4" d="M84.5,92V244.64A9.36,9.36,0,0,0,93.86,254H198.14a9.36,9.36,0,0,0,9.36-9.36V92Z"/><polygon class="cls-2" points="129.52 132.5 123 125.98 123 107 32 107 32 158 123 158 123 139.02 129.52 132.5"/><polygon class="cls-2" points="163.48 177.5 170 184.02 170 203 261 203 261 152 170 152 170 170.98 163.48 177.5"/><polygon class="cls-5" points="129.52 127.5 123 120.98 123 102 32 102 32 153 123 153 123 134.02 129.52 127.5"/><polygon class="cls-5" points="165 173.5 171.52 180.02 171.52 199 262.52 199 262.52 148 171.52 148 171.52 166.98 165 173.5"/><line class="cls-6" x1="244.38" y1="184.5" x2="189.66" y2="184.5"/><line class="cls-6" x1="244.38" y1="173.5" x2="189.66" y2="173.5"/><line class="cls-6" x1="244.38" y1="162.5" x2="189.66" y2="162.5"/><line class="cls-6" x1="104.38" y1="138.5" x2="49.66" y2="138.5"/><line class="cls-6" x1="104.38" y1="127.5" x2="49.66" y2="127.5"/><line class="cls-6" x1="104.38" y1="116.5" x2="49.66" y2="116.5"/></svg>