<svg id="Layer_1" data-name="Layer 1" xmlns="http://www.w3.org/2000/svg" viewBox="0 0 288 288"><defs><style>.cls-1{fill:#9bcbdd;}.cls-1,.cls-2,.cls-3,.cls-4{stroke:#353c51;stroke-linecap:round;stroke-linejoin:round;stroke-width:4px;}.cls-2{fill:#fcfcfc;}.cls-3{fill:#353c51;opacity:0.25;}.cls-4{fill:#33bcaf;}</style></defs><title>Artboard 2sd</title><circle class="cls-1" cx="144" cy="144" r="105"/><path class="cls-2" d="M233.55,137.22a3.09,3.09,0,0,0-2.05-2.58L212.68,128a6.8,6.8,0,0,1-4.13-4.17,67,67,0,0,0-4-9.26,6.78,6.78,0,0,1-.15-6.11L212.64,91a3.1,3.1,0,0,0-.44-3.35,89.89,89.89,0,0,0-11.52-11.06,3.11,3.11,0,0,0-3.26-.37l-18.3,8.7a6.77,6.77,0,0,1-5.77,0,66.71,66.71,0,0,0-7.65-3,6.8,6.8,0,0,1-4.32-4.18l-6.55-18.42a3.06,3.06,0,0,0-2.64-2.05Q148.64,57,145,57a87.9,87.9,0,0,0-9.65.54,3.07,3.07,0,0,0-2.55,2.05l-6.78,19a6.73,6.73,0,0,1-4,4.08,67.83,67.83,0,0,0-6.38,2.71,6.76,6.76,0,0,1-5.86,0l-18-8.55a3.1,3.1,0,0,0-3.29.39A88.44,88.44,0,0,0,76.3,89.46a3.1,3.1,0,0,0-.39,3.29l8.55,18a6.76,6.76,0,0,1,0,5.86A67.83,67.83,0,0,0,81.72,123a6.73,6.73,0,0,1-4.08,4l-19,6.78a3.07,3.07,0,0,0-2.05,2.55A87.9,87.9,0,0,0,56,146q0,3.63.29,7.19a3.06,3.06,0,0,0,2.05,2.64l18.42,6.55a6.8,6.8,0,0,1,4.18,4.32,66.71,66.71,0,0,0,3,7.65,6.77,6.77,0,0,1,0,5.77l-8.7,18.3a3.11,3.11,0,0,0,.37,3.26A89.89,89.89,0,0,0,86.65,213.2a3.1,3.1,0,0,0,3.35.44l17.41-8.28a6.78,6.78,0,0,1,6.11.15,67,67,0,0,0,9.26,4,6.8,6.8,0,0,1,4.17,4.13l6.69,18.82a3.09,3.09,0,0,0,2.58,2.05c2.89.29,5.82.45,8.78.45q3.19,0,6.34-.24a3.06,3.06,0,0,0,2.66-2l6.47-18.17a6.74,6.74,0,0,1,4.38-4.2A67,67,0,0,0,175.51,206a6.76,6.76,0,0,1,6-.09l17.69,8.41a3.07,3.07,0,0,0,3.32-.42,89,89,0,0,0,10.41-10.41,3.07,3.07,0,0,0,.42-3.32l-8.41-17.69a6.76,6.76,0,0,1,.09-6,67,67,0,0,0,4.33-10.66,6.74,6.74,0,0,1,4.2-4.38L231.71,155a3.06,3.06,0,0,0,2-2.66q.24-3.15.24-6.34C234,143,233.84,140.11,233.55,137.22Z"/><path class="cls-3" d="M145.86,141.21c0-31.69-53.87-33.55-53.87,2.49,0,31.07,52.56,65.24,52.56,65.24S198,171,198,141.83C198,108.9,145.86,109.52,145.86,141.21Z"/><path class="cls-4" d="M145.86,132.21c0-31.69-53.87-33.55-53.87,2.49,0,31.07,52.56,65.24,52.56,65.24S198,162,198,132.83C198,99.9,145.86,100.52,145.86,132.21Z"/></svg>