<svg id="Layer_1" data-name="Layer 1" xmlns="http://www.w3.org/2000/svg" viewBox="0 0 294.34 125.52"><defs><style>.cls-1{fill:#02ab9f;}.cls-2{fill:#ad2237;}.cls-3{fill:#343b50;}</style></defs><title>Artboard 1sd</title><path class="cls-1" d="M75.66,38.07a55.87,55.87,0,0,0-12,1.64,68.57,68.57,0,0,1-8.42,1.43l-.56,0v7.74l.65,0q.38,0,.75,0a10.39,10.39,0,0,1,0,20.78q-.37,0-.75,0l-.65,0V80.41H73.61a7.54,7.54,0,0,0-1.38,4.38,7.62,7.62,0,0,0,15.24,0,7.54,7.54,0,0,0-1.38-4.38h18.06l.08-.52a58.85,58.85,0,0,0,.78-9.27C105,47.75,84,38.07,75.66,38.07Z"/><path class="cls-2" d="M90.13,83.18l.06.67c0,.33,0,.63,0,.94a10.39,10.39,0,0,1-20.78,0c0-.3,0-.61.05-.94l.06-.67H54.69V98.1a7.63,7.63,0,1,0,0,12.49v12.75l.5.09c.73.14,1.52.31,2.37.49a58.15,58.15,0,0,0,12.91,1.6c7.15,0,14.3-4.61,20.67-13.34a77.39,77.39,0,0,0,12.33-28.26l.16-.74Z"/><path class="cls-1" d="M50.31,94c.3,0,.61,0,.94,0l.67.07V83.18H32.2a7.62,7.62,0,1,0-12.48,0H1.38l.16.74a77.56,77.56,0,0,0,12.33,28.26c6.37,8.73,13.52,13.34,20.67,13.34a58.07,58.07,0,0,0,12.91-1.6c1.51-.32,2.81-.6,3.93-.72l.54-.06v-8.51l-.67.06c-.33,0-.64,0-.94,0a10.39,10.39,0,1,1,0-20.77Z"/><path class="cls-2" d="M56.09,51.62a7.6,7.6,0,0,0-4.17,1.24V41.26l-.59,0a58.43,58.43,0,0,1-10-1.52,56.05,56.05,0,0,0-12-1.64C21,38.07,0,47.75,0,70.62a59,59,0,0,0,.78,9.27l.09.52H15.68l-.06-.67c0-.33,0-.64,0-.94a10.39,10.39,0,1,1,20.78,0c0,.3,0,.61-.05.94l-.06.67H51.92V65.62a7.62,7.62,0,1,0,4.17-14Z"/><path class="cls-3" d="M90.56,1.62c0-.15-17-1.34-26.67,8.32-8.47,8.47-8.56,22.51-8.39,25.92l.84-.84,3.29-3.32,6.58-6.58c2.19-2.19,4.41-4.35,6.58-6.55,1.09-1.09,2.17-2.2,3.21-3.34.53-.56,1-1.15,1.52-1.75a14.12,14.12,0,0,0,1.33-1.94A8.06,8.06,0,0,1,78.42,14a16.71,16.71,0,0,1-.92,2.28A31.29,31.29,0,0,1,75,20.42a52.45,52.45,0,0,1-6.22,7.31,59.06,59.06,0,0,1-7.31,6.17,43.8,43.8,0,0,1-4.08,2.57l-.47.24c4.23.12,17.27-.37,25.3-8.41C91.91,18.64,90.49,2.17,90.56,1.62Z"/><path class="cls-3" d="M53.7,36.08c0-8.9-1-23.39-8.39-34.61A3.29,3.29,0,0,0,40.69.59h0a3.29,3.29,0,0,0-1,4.24c3.69,7.05,9.85,19.83,10.06,31.26a.6.6,0,0,0,.6.6h2.78A.61.61,0,0,0,53.7,36.08Z"/><path class="cls-3" d="M138.46,50.81a10.37,10.37,0,0,1,3.6,3.91,11.28,11.28,0,0,1,1.34,5.45,11.59,11.59,0,0,1-1.34,5.5,10.53,10.53,0,0,1-3.6,4,9,9,0,0,1-5,1.46H124V82.27a2.45,2.45,0,0,1-.65,1.72A2.38,2.38,0,0,1,120,84a2.49,2.49,0,0,1-.63-1.75V51.79a2.42,2.42,0,0,1,2.42-2.42h11.71A9.09,9.09,0,0,1,138.46,50.81ZM136,65.64a6.11,6.11,0,0,0,1.85-2.34,7.4,7.4,0,0,0,.68-3.13,6.63,6.63,0,0,0-1.49-4.37A4.52,4.52,0,0,0,133.51,54H124V66.53h9.49A4.06,4.06,0,0,0,136,65.64Z"/><path class="cls-3" d="M179.56,76.27a16.64,16.64,0,0,1-6.08,6.53,17.26,17.26,0,0,1-17.56,0,16.64,16.64,0,0,1-6.08-6.53,20.48,20.48,0,0,1,0-18.47,16.74,16.74,0,0,1,6.08-6.54,17.26,17.26,0,0,1,17.56,0,16.74,16.74,0,0,1,6.08,6.54,20.48,20.48,0,0,1,0,18.47ZM175,60.19a11.83,11.83,0,0,0-4.21-4.79,11.06,11.06,0,0,0-6.13-1.74,11.2,11.2,0,0,0-6.13,1.71,11.73,11.73,0,0,0-4.22,4.77A15.33,15.33,0,0,0,152.84,67a15.14,15.14,0,0,0,1.51,6.84,11.88,11.88,0,0,0,4.22,4.8,11.67,11.67,0,0,0,12.26,0,11.85,11.85,0,0,0,4.21-4.8,16.15,16.15,0,0,0,0-13.68Z"/><path class="cls-3" d="M220.52,50.05a2.25,2.25,0,0,1,.7,1.69V82.27a2.38,2.38,0,0,1-2.47,2.43,2.53,2.53,0,0,1-1.82-.68,2.34,2.34,0,0,1-.7-1.75V58.91l-9.79,14.83a2.86,2.86,0,0,1-.89.76,1.76,1.76,0,0,1-1.08.25,1.71,1.71,0,0,1-1-.25,2.82,2.82,0,0,1-.88-.76l-9.84-15.29V82.27a2.49,2.49,0,0,1-.63,1.75,2.21,2.21,0,0,1-1.69.68,2.13,2.13,0,0,1-1.64-.68,2.45,2.45,0,0,1-.63-1.75V51.74a2.44,2.44,0,0,1,2.47-2.42,2.52,2.52,0,0,1,1.18.3,2.55,2.55,0,0,1,.94.81l12,18.12,12.11-18.12a2.42,2.42,0,0,1,2-1.11A2.61,2.61,0,0,1,220.52,50.05Z"/><path class="cls-3" d="M262,50.05a2.26,2.26,0,0,1,.71,1.69V82.27a2.38,2.38,0,0,1-2.48,2.43,2.51,2.51,0,0,1-1.81-.68,2.34,2.34,0,0,1-.71-1.75V58.91l-9.79,14.83a2.93,2.93,0,0,1-.88.76,1.81,1.81,0,0,1-1.09.25,1.66,1.66,0,0,1-1-.25,2.86,2.86,0,0,1-.89-.76l-9.84-15.29V82.27a2.49,2.49,0,0,1-.63,1.75,2.2,2.2,0,0,1-1.69.68,2.15,2.15,0,0,1-1.64-.68,2.49,2.49,0,0,1-.63-1.75V51.74a2.46,2.46,0,0,1,2.47-2.42,2.56,2.56,0,0,1,1.19.3,2.45,2.45,0,0,1,.93.81l12,18.12,12.12-18.12a2.4,2.4,0,0,1,2-1.11A2.57,2.57,0,0,1,262,50.05Z"/><path class="cls-2" d="M292.94,72a2.43,2.43,0,0,1-1.67.63H273.51a8.77,8.77,0,0,0,2.8,5.91,8.57,8.57,0,0,0,6,2.22,9.33,9.33,0,0,0,3.93-.71,10,10,0,0,0,2.68-1.81,2.77,2.77,0,0,1,1.46-.46,1.9,1.9,0,0,1,1.44.61,2,2,0,0,1,.58,1.41,2.47,2.47,0,0,1-1,1.92,11.88,11.88,0,0,1-3.88,2.47,12.85,12.85,0,0,1-4.95,1,14.57,14.57,0,0,1-7.19-1.72,12,12,0,0,1-4.8-4.79,14.28,14.28,0,0,1-1.69-7,15.38,15.38,0,0,1,1.74-7.45,12.79,12.79,0,0,1,4.6-4.92,11.87,11.87,0,0,1,12.19,0,12.73,12.73,0,0,1,4.54,4.59,13.1,13.1,0,0,1,1.76,6.56A2.13,2.13,0,0,1,292.94,72Zm-16.51-8.32a7.83,7.83,0,0,0-2.72,4.92H288.6v-.41a6.19,6.19,0,0,0-2.4-4.39,7.6,7.6,0,0,0-4.87-1.71A7.8,7.8,0,0,0,276.43,63.68Z"/><path class="cls-3" d="M229.3,89.47a.85.85,0,0,1,.24.63V108a1,1,0,0,1-.28.63.88.88,0,0,1-.62.24.89.89,0,0,1-.62-.25.84.84,0,0,1-.25-.62V99.63H216.39V108a1,1,0,0,1-.28.62.87.87,0,0,1-.62.25.81.81,0,0,1-.86-.87V90.1a.82.82,0,0,1,.25-.63.89.89,0,0,1,.64-.24.84.84,0,0,1,.62.25.83.83,0,0,1,.25.62V98h11.38V90.1a.81.81,0,0,1,.27-.62.93.93,0,0,1,1.26,0Z"/><path class="cls-3" d="M246.24,101.43a.82.82,0,0,1-.59.24H235.06a6.61,6.61,0,0,0,.68,3,5.31,5.31,0,0,0,2,2.1,5.73,5.73,0,0,0,3,.77,5.13,5.13,0,0,0,2.41-.56,5,5,0,0,0,1.71-1.43.94.94,0,0,1,.59-.25.69.69,0,0,1,.5.22.71.71,0,0,1,.23.51.84.84,0,0,1-.28.58,7.09,7.09,0,0,1-2.26,1.8,6.27,6.27,0,0,1-2.87.7,7.63,7.63,0,0,1-3.81-.93,6.43,6.43,0,0,1-2.58-2.59,7.78,7.78,0,0,1-.93-3.85,8.62,8.62,0,0,1,.91-4,6.66,6.66,0,0,1,2.43-2.63,6.11,6.11,0,0,1,3.22-.91,6.62,6.62,0,0,1,3.15.78,6.29,6.29,0,0,1,2.4,2.3,6.93,6.93,0,0,1,1,3.59A.74.74,0,0,1,246.24,101.43ZM237,96.94a5.14,5.14,0,0,0-1.78,3.22h9.56v-.23a4.48,4.48,0,0,0-2.6-3.62,5,5,0,0,0-2.17-.5A4.68,4.68,0,0,0,237,96.94Z"/><path class="cls-3" d="M262.32,94.78a.89.89,0,0,1,.23.61V108a.85.85,0,0,1-.23.6.85.85,0,0,1-1.45-.6v-1.88a5.94,5.94,0,0,1-2.1,2.13,5.67,5.67,0,0,1-3.06.87,6,6,0,0,1-3.37-1,6.79,6.79,0,0,1-2.36-2.69,8.47,8.47,0,0,1-.85-3.84,8.28,8.28,0,0,1,.87-3.83,6.68,6.68,0,0,1,2.36-2.65,6.12,6.12,0,0,1,3.33-1,6,6,0,0,1,3.08.81,5.37,5.37,0,0,1,2.1,2.13V95.39a.85.85,0,0,1,.24-.61.86.86,0,0,1,1.21,0Zm-3.82,12a5.2,5.2,0,0,0,1.82-2.13,6.88,6.88,0,0,0,.66-3,6.61,6.61,0,0,0-.66-3,5.1,5.1,0,0,0-1.82-2.12,4.87,4.87,0,0,0-5.24,0,5.2,5.2,0,0,0-1.82,2.08,6.73,6.73,0,0,0-.66,3,7,7,0,0,0,.65,3,5.23,5.23,0,0,0,1.8,2.13,4.73,4.73,0,0,0,2.65.77A4.66,4.66,0,0,0,258.5,106.79Z"/><path class="cls-3" d="M268.57,108.61a.85.85,0,0,1-1.45-.6V89a.78.78,0,0,1,.24-.6.84.84,0,0,1,1.44.6V108A.85.85,0,0,1,268.57,108.61Z"/><path class="cls-3" d="M276.12,96.15v9.39a2,2,0,0,0,.39,1.44,1.4,1.4,0,0,0,1,.38,1.52,1.52,0,0,0,.42-.07,2,2,0,0,1,.39-.07.58.58,0,0,1,.44.21.74.74,0,0,1,.18.49.78.78,0,0,1-.45.66,2,2,0,0,1-1.07.27,6,6,0,0,1-1.34-.14,2.25,2.25,0,0,1-1.14-.84,3.72,3.72,0,0,1-.54-2.25V96.15h-2.05a.78.78,0,0,1-.57-.22.74.74,0,0,1-.24-.56.73.73,0,0,1,.24-.56.79.79,0,0,1,.57-.23h2.05V91.47a.81.81,0,0,1,.24-.6.78.78,0,0,1,.6-.24.82.82,0,0,1,.84.84v3.11h2.8a.76.76,0,0,1,.55.25.81.81,0,0,1,.24.56.72.72,0,0,1-.23.55.78.78,0,0,1-.56.21Z"/><path class="cls-3" d="M293.1,96a6.38,6.38,0,0,1,1.24,4.08V108a.84.84,0,1,1-1.68,0v-7.93a4.71,4.71,0,0,0-.87-3A3.21,3.21,0,0,0,289.07,96a4.7,4.7,0,0,0-2.23.56,4.84,4.84,0,0,0-1.7,1.5,3.54,3.54,0,0,0-.64,2V108a.82.82,0,0,1-.84.84.8.8,0,0,1-.6-.24.81.81,0,0,1-.24-.6V89a.78.78,0,0,1,.24-.6.8.8,0,0,1,.6-.24.81.81,0,0,1,.6.24.78.78,0,0,1,.24.6v8.21a5.89,5.89,0,0,1,2.1-2,5.51,5.51,0,0,1,2.75-.77A4.44,4.44,0,0,1,293.1,96Z"/><path class="cls-3" d="M206.44,100.72H117.77a.75.75,0,0,1,0-1.5h88.67a.75.75,0,0,1,0,1.5Z"/><path class="cls-1" d="M75.66,38.07a55.87,55.87,0,0,0-12,1.64,68.57,68.57,0,0,1-8.42,1.43l-.56,0v7.74l.65,0q.38,0,.75,0a10.39,10.39,0,0,1,0,20.78q-.37,0-.75,0l-.65,0V80.41H73.61a7.54,7.54,0,0,0-1.38,4.38,7.62,7.62,0,0,0,15.24,0,7.54,7.54,0,0,0-1.38-4.38h18.06l.08-.52a58.85,58.85,0,0,0,.78-9.27C105,47.75,84,38.07,75.66,38.07Z"/><path class="cls-2" d="M90.13,83.18l.06.67c0,.33,0,.63,0,.94a10.39,10.39,0,0,1-20.78,0c0-.3,0-.61.05-.94l.06-.67H54.69V98.1a7.63,7.63,0,1,0,0,12.49v12.75l.5.09c.73.14,1.52.31,2.37.49a58.15,58.15,0,0,0,12.91,1.6c7.15,0,14.3-4.61,20.67-13.34a77.39,77.39,0,0,0,12.33-28.26l.16-.74Z"/><path class="cls-1" d="M50.31,94c.3,0,.61,0,.94,0l.67.07V83.18H32.2a7.62,7.62,0,1,0-12.48,0H1.38l.16.74a77.56,77.56,0,0,0,12.33,28.26c6.37,8.73,13.52,13.34,20.67,13.34a58.07,58.07,0,0,0,12.91-1.6c1.51-.32,2.81-.6,3.93-.72l.54-.06v-8.51l-.67.06c-.33,0-.64,0-.94,0a10.39,10.39,0,1,1,0-20.77Z"/><path class="cls-2" d="M56.09,51.62a7.6,7.6,0,0,0-4.17,1.24V41.26l-.59,0a58.43,58.43,0,0,1-10-1.52,56.05,56.05,0,0,0-12-1.64C21,38.07,0,47.75,0,70.62a59,59,0,0,0,.78,9.27l.09.52H15.68l-.06-.67c0-.33,0-.64,0-.94a10.39,10.39,0,1,1,20.78,0c0,.3,0,.61-.05.94l-.06.67H51.92V65.62a7.62,7.62,0,1,0,4.17-14Z"/><path class="cls-3" d="M90.56,1.62c0-.15-17-1.34-26.67,8.32-8.47,8.47-8.56,22.51-8.39,25.92l.84-.84,3.29-3.32,6.58-6.58c2.19-2.19,4.41-4.35,6.58-6.55,1.09-1.09,2.17-2.2,3.21-3.34.53-.56,1-1.15,1.52-1.75a14.12,14.12,0,0,0,1.33-1.94A8.06,8.06,0,0,1,78.42,14a16.71,16.71,0,0,1-.92,2.28A31.29,31.29,0,0,1,75,20.42a52.45,52.45,0,0,1-6.22,7.31,59.06,59.06,0,0,1-7.31,6.17,43.8,43.8,0,0,1-4.08,2.57l-.47.24c4.23.12,17.27-.37,25.3-8.41C91.91,18.64,90.49,2.17,90.56,1.62Z"/><path class="cls-3" d="M53.7,36.08c0-8.9-1-23.39-8.39-34.61A3.29,3.29,0,0,0,40.69.59h0a3.29,3.29,0,0,0-1,4.24c3.69,7.05,9.85,19.83,10.06,31.26a.6.6,0,0,0,.6.6h2.78A.61.61,0,0,0,53.7,36.08Z"/><path class="cls-3" d="M138.46,50.81a10.37,10.37,0,0,1,3.6,3.91,11.28,11.28,0,0,1,1.34,5.45,11.59,11.59,0,0,1-1.34,5.5,10.53,10.53,0,0,1-3.6,4,9,9,0,0,1-5,1.46H124V82.27a2.45,2.45,0,0,1-.65,1.72A2.38,2.38,0,0,1,120,84a2.49,2.49,0,0,1-.63-1.75V51.79a2.42,2.42,0,0,1,2.42-2.42h11.71A9.09,9.09,0,0,1,138.46,50.81ZM136,65.64a6.11,6.11,0,0,0,1.85-2.34,7.4,7.4,0,0,0,.68-3.13,6.63,6.63,0,0,0-1.49-4.37A4.52,4.52,0,0,0,133.51,54H124V66.53h9.49A4.06,4.06,0,0,0,136,65.64Z"/><path class="cls-3" d="M179.56,76.27a16.64,16.64,0,0,1-6.08,6.53,17.26,17.26,0,0,1-17.56,0,16.64,16.64,0,0,1-6.08-6.53,20.48,20.48,0,0,1,0-18.47,16.74,16.74,0,0,1,6.08-6.54,17.26,17.26,0,0,1,17.56,0,16.74,16.74,0,0,1,6.08,6.54,20.48,20.48,0,0,1,0,18.47ZM175,60.19a11.83,11.83,0,0,0-4.21-4.79,11.06,11.06,0,0,0-6.13-1.74,11.2,11.2,0,0,0-6.13,1.71,11.73,11.73,0,0,0-4.22,4.77A15.33,15.33,0,0,0,152.84,67a15.14,15.14,0,0,0,1.51,6.84,11.88,11.88,0,0,0,4.22,4.8,11.67,11.67,0,0,0,12.26,0,11.85,11.85,0,0,0,4.21-4.8,16.15,16.15,0,0,0,0-13.68Z"/><path class="cls-3" d="M220.52,50.05a2.25,2.25,0,0,1,.7,1.69V82.27a2.38,2.38,0,0,1-2.47,2.43,2.53,2.53,0,0,1-1.82-.68,2.34,2.34,0,0,1-.7-1.75V58.91l-9.79,14.83a2.86,2.86,0,0,1-.89.76,1.76,1.76,0,0,1-1.08.25,1.71,1.71,0,0,1-1-.25,2.82,2.82,0,0,1-.88-.76l-9.84-15.29V82.27a2.49,2.49,0,0,1-.63,1.75,2.21,2.21,0,0,1-1.69.68,2.13,2.13,0,0,1-1.64-.68,2.45,2.45,0,0,1-.63-1.75V51.74a2.44,2.44,0,0,1,2.47-2.42,2.52,2.52,0,0,1,1.18.3,2.55,2.55,0,0,1,.94.81l12,18.12,12.11-18.12a2.42,2.42,0,0,1,2-1.11A2.61,2.61,0,0,1,220.52,50.05Z"/><path class="cls-3" d="M262,50.05a2.26,2.26,0,0,1,.71,1.69V82.27a2.38,2.38,0,0,1-2.48,2.43,2.51,2.51,0,0,1-1.81-.68,2.34,2.34,0,0,1-.71-1.75V58.91l-9.79,14.83a2.93,2.93,0,0,1-.88.76,1.81,1.81,0,0,1-1.09.25,1.66,1.66,0,0,1-1-.25,2.86,2.86,0,0,1-.89-.76l-9.84-15.29V82.27a2.49,2.49,0,0,1-.63,1.75,2.2,2.2,0,0,1-1.69.68,2.15,2.15,0,0,1-1.64-.68,2.49,2.49,0,0,1-.63-1.75V51.74a2.46,2.46,0,0,1,2.47-2.42,2.56,2.56,0,0,1,1.19.3,2.45,2.45,0,0,1,.93.81l12,18.12,12.12-18.12a2.4,2.4,0,0,1,2-1.11A2.57,2.57,0,0,1,262,50.05Z"/><path class="cls-2" d="M292.94,72a2.43,2.43,0,0,1-1.67.63H273.51a8.77,8.77,0,0,0,2.8,5.91,8.57,8.57,0,0,0,6,2.22,9.33,9.33,0,0,0,3.93-.71,10,10,0,0,0,2.68-1.81,2.77,2.77,0,0,1,1.46-.46,1.9,1.9,0,0,1,1.44.61,2,2,0,0,1,.58,1.41,2.47,2.47,0,0,1-1,1.92,11.88,11.88,0,0,1-3.88,2.47,12.85,12.85,0,0,1-4.95,1,14.57,14.57,0,0,1-7.19-1.72,12,12,0,0,1-4.8-4.79,14.28,14.28,0,0,1-1.69-7,15.38,15.38,0,0,1,1.74-7.45,12.79,12.79,0,0,1,4.6-4.92,11.87,11.87,0,0,1,12.19,0,12.73,12.73,0,0,1,4.54,4.59,13.1,13.1,0,0,1,1.76,6.56A2.13,2.13,0,0,1,292.94,72Zm-16.51-8.32a7.83,7.83,0,0,0-2.72,4.92H288.6v-.41a6.19,6.19,0,0,0-2.4-4.39,7.6,7.6,0,0,0-4.87-1.71A7.8,7.8,0,0,0,276.43,63.68Z"/><path class="cls-3" d="M229.3,89.47a.85.85,0,0,1,.24.63V108a1,1,0,0,1-.28.63.88.88,0,0,1-.62.24.89.89,0,0,1-.62-.25.84.84,0,0,1-.25-.62V99.63H216.39V108a1,1,0,0,1-.28.62.87.87,0,0,1-.62.25.81.81,0,0,1-.86-.87V90.1a.82.82,0,0,1,.25-.63.89.89,0,0,1,.64-.24.84.84,0,0,1,.62.25.83.83,0,0,1,.25.62V98h11.38V90.1a.81.81,0,0,1,.27-.62.93.93,0,0,1,1.26,0Z"/><path class="cls-3" d="M246.24,101.43a.82.82,0,0,1-.59.24H235.06a6.61,6.61,0,0,0,.68,3,5.31,5.31,0,0,0,2,2.1,5.73,5.73,0,0,0,3,.77,5.13,5.13,0,0,0,2.41-.56,5,5,0,0,0,1.71-1.43.94.94,0,0,1,.59-.25.69.69,0,0,1,.5.22.71.71,0,0,1,.23.51.84.84,0,0,1-.28.58,7.09,7.09,0,0,1-2.26,1.8,6.27,6.27,0,0,1-2.87.7,7.63,7.63,0,0,1-3.81-.93,6.43,6.43,0,0,1-2.58-2.59,7.78,7.78,0,0,1-.93-3.85,8.62,8.62,0,0,1,.91-4,6.66,6.66,0,0,1,2.43-2.63,6.11,6.11,0,0,1,3.22-.91,6.62,6.62,0,0,1,3.15.78,6.29,6.29,0,0,1,2.4,2.3,6.93,6.93,0,0,1,1,3.59A.74.74,0,0,1,246.24,101.43ZM237,96.94a5.14,5.14,0,0,0-1.78,3.22h9.56v-.23a4.48,4.48,0,0,0-2.6-3.62,5,5,0,0,0-2.17-.5A4.68,4.68,0,0,0,237,96.94Z"/><path class="cls-3" d="M262.32,94.78a.89.89,0,0,1,.23.61V108a.85.85,0,0,1-.23.6.85.85,0,0,1-1.45-.6v-1.88a5.94,5.94,0,0,1-2.1,2.13,5.67,5.67,0,0,1-3.06.87,6,6,0,0,1-3.37-1,6.79,6.79,0,0,1-2.36-2.69,8.47,8.47,0,0,1-.85-3.84,8.28,8.28,0,0,1,.87-3.83,6.68,6.68,0,0,1,2.36-2.65,6.12,6.12,0,0,1,3.33-1,6,6,0,0,1,3.08.81,5.37,5.37,0,0,1,2.1,2.13V95.39a.85.85,0,0,1,.24-.61.86.86,0,0,1,1.21,0Zm-3.82,12a5.2,5.2,0,0,0,1.82-2.13,6.88,6.88,0,0,0,.66-3,6.61,6.61,0,0,0-.66-3,5.1,5.1,0,0,0-1.82-2.12,4.87,4.87,0,0,0-5.24,0,5.2,5.2,0,0,0-1.82,2.08,6.73,6.73,0,0,0-.66,3,7,7,0,0,0,.65,3,5.23,5.23,0,0,0,1.8,2.13,4.73,4.73,0,0,0,2.65.77A4.66,4.66,0,0,0,258.5,106.79Z"/><path class="cls-3" d="M268.57,108.61a.85.85,0,0,1-1.45-.6V89a.78.78,0,0,1,.24-.6.84.84,0,0,1,1.44.6V108A.85.85,0,0,1,268.57,108.61Z"/><path class="cls-3" d="M276.12,96.15v9.39a2,2,0,0,0,.39,1.44,1.4,1.4,0,0,0,1,.38,1.52,1.52,0,0,0,.42-.07,2,2,0,0,1,.39-.07.58.58,0,0,1,.44.21.74.74,0,0,1,.18.49.78.78,0,0,1-.45.66,2,2,0,0,1-1.07.27,6,6,0,0,1-1.34-.14,2.25,2.25,0,0,1-1.14-.84,3.72,3.72,0,0,1-.54-2.25V96.15h-2.05a.78.78,0,0,1-.57-.22.74.74,0,0,1-.24-.56.73.73,0,0,1,.24-.56.79.79,0,0,1,.57-.23h2.05V91.47a.81.81,0,0,1,.24-.6.78.78,0,0,1,.6-.24.82.82,0,0,1,.84.84v3.11h2.8a.76.76,0,0,1,.55.25.81.81,0,0,1,.24.56.72.72,0,0,1-.23.55.78.78,0,0,1-.56.21Z"/><path class="cls-3" d="M293.1,96a6.38,6.38,0,0,1,1.24,4.08V108a.84.84,0,1,1-1.68,0v-7.93a4.71,4.71,0,0,0-.87-3A3.21,3.21,0,0,0,289.07,96a4.7,4.7,0,0,0-2.23.56,4.84,4.84,0,0,0-1.7,1.5,3.54,3.54,0,0,0-.64,2V108a.82.82,0,0,1-.84.84.8.8,0,0,1-.6-.24.81.81,0,0,1-.24-.6V89a.78.78,0,0,1,.24-.6.8.8,0,0,1,.6-.24.81.81,0,0,1,.6.24.78.78,0,0,1,.24.6v8.21a5.89,5.89,0,0,1,2.1-2,5.51,5.51,0,0,1,2.75-.77A4.44,4.44,0,0,1,293.1,96Z"/><path class="cls-3" d="M206.44,100.72H117.77a.75.75,0,0,1,0-1.5h88.67a.75.75,0,0,1,0,1.5Z"/></svg>