<?xml version="1.0" encoding="UTF-8" standalone="no"?>
<svg
   id="Layer_1"
   data-name="Layer 1"
   viewBox="0 0 315.32483 125.51969"
   version="1.1"
   sodipodi:docname="pomme-logo.svg"
   inkscape:version="1.1.2 (b8e25be8, 2022-02-05)"
   width="315.32483"
   height="125.51968"
   xmlns:inkscape="http://www.inkscape.org/namespaces/inkscape"
   xmlns:sodipodi="http://sodipodi.sourceforge.net/DTD/sodipodi-0.dtd"
   xmlns="http://www.w3.org/2000/svg"
   xmlns:svg="http://www.w3.org/2000/svg"
   xmlns:rdf="http://www.w3.org/1999/02/22-rdf-syntax-ns#"
   xmlns:cc="http://creativecommons.org/ns#"
   xmlns:dc="http://purl.org/dc/elements/1.1/">
  <sodipodi:namedview
     id="namedview201"
     pagecolor="#ffffff"
     bordercolor="#666666"
     borderopacity="1.0"
     inkscape:pageshadow="2"
     inkscape:pageopacity="0.0"
     inkscape:pagecheckerboard="0"
     showgrid="false"
     inkscape:zoom="3.7337773"
     inkscape:cx="147.17"
     inkscape:cy="62.671119"
     inkscape:window-width="1840"
     inkscape:window-height="1180"
     inkscape:window-x="659"
     inkscape:window-y="23"
     inkscape:window-maximized="0"
     inkscape:current-layer="text5653"
     showguides="true"
     inkscape:guide-bbox="true">
    <sodipodi:guide
       position="193.6377,76.507971"
       orientation="0,-1"
       id="guide46" />
    <sodipodi:guide
       position="292.94001,53.519998"
       orientation="1,0"
       id="guide48" />
  </sodipodi:namedview>
  <defs
     id="defs124">
    <style
       id="style122">.cls-1{fill:#02ab9f;}.cls-2{fill:#ad2237;}.cls-3{fill:#343b50;}</style>
  </defs>
  <title
     id="title126">Artboard 1sd</title>
  <path
     class="cls-1"
     d="m 75.66,38.069682 a 55.87,55.87 0 0 0 -12,1.64 68.57,68.57 0 0 1 -8.42,1.43 h -0.56 v 7.74 h 0.65 q 0.38,0 0.75,0 a 10.39,10.39 0 0 1 0,20.78 q -0.37,0 -0.75,0 h -0.65 v 10.75 h 18.93 a 7.54,7.54 0 0 0 -1.38,4.38 7.62,7.62 0 0 0 15.24,0 7.54,7.54 0 0 0 -1.38,-4.38 h 18.06 l 0.08,-0.52 a 58.85,58.85 0 0 0 0.78,-9.27 c -0.01,-22.87 -21.01,-32.55 -29.35,-32.55 z"
     id="path128" />
  <path
     class="cls-2"
     d="m 90.13,83.179682 0.06,0.67 c 0,0.33 0,0.63 0,0.94 a 10.39,10.39 0 0 1 -20.78,0 c 0,-0.3 0,-0.61 0.05,-0.94 l 0.06,-0.67 H 54.69 v 14.92 a 7.63,7.63 0 1 0 0,12.489998 v 12.75 l 0.5,0.09 c 0.73,0.14 1.52,0.31 2.37,0.49 a 58.15,58.15 0 0 0 12.91,1.6 c 7.15,0 14.3,-4.61 20.67,-13.34 a 77.39,77.39 0 0 0 12.33,-28.259998 l 0.16,-0.74 z"
     id="path130" />
  <path
     class="cls-1"
     d="m 50.31,93.999682 c 0.3,0 0.61,0 0.94,0 l 0.67,0.07 v -10.89 H 32.2 a 7.62,7.62 0 1 0 -12.48,0 H 1.38 l 0.16,0.74 a 77.56,77.56 0 0 0 12.33,28.259998 c 6.37,8.73 13.52,13.34 20.67,13.34 a 58.07,58.07 0 0 0 12.91,-1.6 c 1.51,-0.32 2.81,-0.6 3.93,-0.72 l 0.54,-0.06 v -8.51 l -0.67,0.06 c -0.33,0 -0.64,0 -0.94,0 a 10.39,10.39 0 1 1 0,-20.769998 z"
     id="path132" />
  <path
     class="cls-2"
     d="m 56.09,51.619682 a 7.6,7.6 0 0 0 -4.17,1.24 v -11.6 h -0.59 a 58.43,58.43 0 0 1 -10,-1.52 56.05,56.05 0 0 0 -12,-1.64 c -8.33,-0.03 -29.33,9.65 -29.33,32.52 a 59,59 0 0 0 0.78,9.27 l 0.09,0.52 h 14.81 l -0.06,-0.67 c 0,-0.33 0,-0.64 0,-0.94 a 10.39,10.39 0 1 1 20.78,0 c 0,0.3 0,0.61 -0.05,0.94 l -0.06,0.67 h 15.63 v -14.79 a 7.62,7.62 0 1 0 4.17,-14 z"
     id="path134" />
  <path
     class="cls-3"
     d="m 90.56,1.6196819 c 0,-0.15 -17,-1.34000005 -26.67,8.32 C 55.42,18.409682 55.33,32.449682 55.5,35.859682 l 0.84,-0.84 3.29,-3.32 6.58,-6.58 c 2.19,-2.19 4.41,-4.35 6.58,-6.55 1.09,-1.09 2.17,-2.2 3.21,-3.34 0.53,-0.56 1,-1.15 1.52,-1.75 a 14.12,14.12 0 0 0 1.33,-1.94 8.06,8.06 0 0 1 -0.43,2.46 16.71,16.71 0 0 1 -0.92,2.28 31.29,31.29 0 0 1 -2.5,4.14 52.45,52.45 0 0 1 -6.22,7.31 59.06,59.06 0 0 1 -7.31,6.17 43.8,43.8 0 0 1 -4.08,2.57 l -0.47,0.24 c 4.23,0.12 17.27,-0.37 25.3,-8.41 9.69,-9.66 8.27,-26.1300001 8.34,-26.6800001 z"
     id="path136" />
  <path
     class="cls-3"
     d="m 53.7,36.079682 c 0,-8.9 -1,-23.39 -8.39,-34.6100001 A 3.29,3.29 0 0 0 40.69,0.58968185 v 0 a 3.29,3.29 0 0 0 -1,4.24000005 c 3.69,7.0500001 9.85,19.8300001 10.06,31.2600001 a 0.6,0.6 0 0 0 0.6,0.6 h 2.78 a 0.61,0.61 0 0 0 0.57,-0.61 z"
     id="path138" />
  <path
     class="cls-3"
     d="m 138.46,50.809682 a 10.37,10.37 0 0 1 3.6,3.91 11.28,11.28 0 0 1 1.34,5.45 11.59,11.59 0 0 1 -1.34,5.5 10.53,10.53 0 0 1 -3.6,4 9,9 0 0 1 -5,1.46 H 124 v 11.14 a 2.45,2.45 0 0 1 -0.65,1.72 2.38,2.38 0 0 1 -3.35,0.01 2.49,2.49 0 0 1 -0.63,-1.75 v -30.46 a 2.42,2.42 0 0 1 2.42,-2.42 h 11.71 a 9.09,9.09 0 0 1 4.96,1.44 z m -2.46,14.83 a 6.11,6.11 0 0 0 1.85,-2.34 7.4,7.4 0 0 0 0.68,-3.13 6.63,6.63 0 0 0 -1.49,-4.37 4.52,4.52 0 0 0 -3.53,-1.8 H 124 v 12.53 h 9.49 a 4.06,4.06 0 0 0 2.51,-0.89 z"
     id="path140" />
  <path
     class="cls-3"
     d="m 179.56,76.269682 a 16.64,16.64 0 0 1 -6.08,6.53 17.26,17.26 0 0 1 -17.56,0 16.64,16.64 0 0 1 -6.08,-6.53 20.48,20.48 0 0 1 0,-18.47 16.74,16.74 0 0 1 6.08,-6.54 17.26,17.26 0 0 1 17.56,0 16.74,16.74 0 0 1 6.08,6.54 20.48,20.48 0 0 1 0,18.47 z m -4.56,-16.08 a 11.83,11.83 0 0 0 -4.21,-4.79 11.06,11.06 0 0 0 -6.13,-1.74 11.2,11.2 0 0 0 -6.13,1.71 11.73,11.73 0 0 0 -4.22,4.77 15.33,15.33 0 0 0 -1.47,6.86 15.14,15.14 0 0 0 1.51,6.84 11.88,11.88 0 0 0 4.22,4.8 11.67,11.67 0 0 0 12.26,0 11.85,11.85 0 0 0 4.21,-4.8 16.15,16.15 0 0 0 0,-13.68 z"
     id="path142" />
  <path
     class="cls-3"
     d="m 220.52,50.049682 a 2.25,2.25 0 0 1 0.7,1.69 v 30.53 a 2.38,2.38 0 0 1 -2.47,2.43 2.53,2.53 0 0 1 -1.82,-0.68 2.34,2.34 0 0 1 -0.7,-1.75 v -23.36 l -9.79,14.83 a 2.86,2.86 0 0 1 -0.89,0.76 1.76,1.76 0 0 1 -1.08,0.25 1.71,1.71 0 0 1 -1,-0.25 2.82,2.82 0 0 1 -0.88,-0.76 l -9.84,-15.29 v 23.82 a 2.49,2.49 0 0 1 -0.63,1.75 2.21,2.21 0 0 1 -1.69,0.68 2.13,2.13 0 0 1 -1.64,-0.68 2.45,2.45 0 0 1 -0.63,-1.75 v -30.53 a 2.44,2.44 0 0 1 2.47,-2.42 2.52,2.52 0 0 1 1.18,0.3 2.55,2.55 0 0 1 0.94,0.81 l 12,18.12 12.11,-18.12 a 2.42,2.42 0 0 1 2,-1.11 2.61,2.61 0 0 1 1.66,0.73 z"
     id="path144" />
  <path
     class="cls-3"
     d="m 262,50.049682 a 2.26,2.26 0 0 1 0.71,1.69 v 30.53 a 2.38,2.38 0 0 1 -2.48,2.43 2.51,2.51 0 0 1 -1.81,-0.68 2.34,2.34 0 0 1 -0.71,-1.75 v -23.36 l -9.79,14.83 a 2.93,2.93 0 0 1 -0.88,0.76 1.81,1.81 0 0 1 -1.09,0.25 1.66,1.66 0 0 1 -1,-0.25 2.86,2.86 0 0 1 -0.89,-0.76 l -9.84,-15.29 v 23.82 a 2.49,2.49 0 0 1 -0.63,1.75 2.2,2.2 0 0 1 -1.69,0.68 2.15,2.15 0 0 1 -1.64,-0.68 2.49,2.49 0 0 1 -0.63,-1.75 v -30.53 a 2.46,2.46 0 0 1 2.47,-2.42 2.56,2.56 0 0 1 1.19,0.3 2.45,2.45 0 0 1 0.93,0.81 l 12,18.12 12.12,-18.12 a 2.4,2.4 0 0 1 2,-1.11 2.57,2.57 0 0 1 1.66,0.73 z"
     id="path146" />
  <path
     class="cls-2"
     d="m 292.94,71.999682 a 2.43,2.43 0 0 1 -1.67,0.63 h -17.76 a 8.77,8.77 0 0 0 2.8,5.91 8.57,8.57 0 0 0 6,2.22 9.33,9.33 0 0 0 3.93,-0.71 10,10 0 0 0 2.68,-1.81 2.77,2.77 0 0 1 1.46,-0.46 1.9,1.9 0 0 1 1.44,0.61 2,2 0 0 1 0.58,1.41 2.47,2.47 0 0 1 -1,1.92 11.88,11.88 0 0 1 -3.88,2.47 12.85,12.85 0 0 1 -4.95,1 14.57,14.57 0 0 1 -7.19,-1.72 12,12 0 0 1 -4.8,-4.79 14.28,14.28 0 0 1 -1.69,-7 15.38,15.38 0 0 1 1.74,-7.45 12.79,12.79 0 0 1 4.6,-4.92 11.87,11.87 0 0 1 12.19,0 12.73,12.73 0 0 1 4.54,4.59 13.1,13.1 0 0 1 1.76,6.56 2.13,2.13 0 0 1 -0.78,1.54 z m -16.51,-8.32 a 7.83,7.83 0 0 0 -2.72,4.92 h 14.89 v -0.41 a 6.19,6.19 0 0 0 -2.4,-4.39 7.6,7.6 0 0 0 -4.87,-1.71 7.8,7.8 0 0 0 -4.9,1.59 z"
     id="path148" />
  <path
     class="cls-3"
     d="m 229.3,89.469682 a 0.85,0.85 0 0 1 0.24,0.63 v 17.899998 a 1,1 0 0 1 -0.28,0.63 0.88,0.88 0 0 1 -0.62,0.24 0.89,0.89 0 0 1 -0.62,-0.25 0.84,0.84 0 0 1 -0.25,-0.62 v -8.369998 h -11.38 v 8.369998 a 1,1 0 0 1 -0.28,0.62 0.87,0.87 0 0 1 -0.62,0.25 0.81,0.81 0 0 1 -0.86,-0.87 V 90.099682 a 0.82,0.82 0 0 1 0.25,-0.63 0.89,0.89 0 0 1 0.64,-0.24 0.84,0.84 0 0 1 0.62,0.25 0.83,0.83 0 0 1 0.25,0.62 v 7.9 h 11.38 v -7.9 a 0.81,0.81 0 0 1 0.27,-0.62 0.93,0.93 0 0 1 1.26,0 z"
     id="path150" />
  <path
     class="cls-3"
     d="m 246.24,101.42968 a 0.82,0.82 0 0 1 -0.59,0.24 h -10.59 a 6.61,6.61 0 0 0 0.68,3 5.31,5.31 0 0 0 2,2.1 5.73,5.73 0 0 0 3,0.77 5.13,5.13 0 0 0 2.41,-0.56 5,5 0 0 0 1.71,-1.43 0.94,0.94 0 0 1 0.59,-0.25 0.69,0.69 0 0 1 0.5,0.22 0.71,0.71 0 0 1 0.23,0.51 0.84,0.84 0 0 1 -0.28,0.58 7.09,7.09 0 0 1 -2.26,1.8 6.27,6.27 0 0 1 -2.87,0.7 7.63,7.63 0 0 1 -3.81,-0.93 6.43,6.43 0 0 1 -2.58,-2.59 7.78,7.78 0 0 1 -0.93,-3.85 8.62,8.62 0 0 1 0.91,-3.999998 6.66,6.66 0 0 1 2.43,-2.63 6.11,6.11 0 0 1 3.22,-0.91 6.62,6.62 0 0 1 3.15,0.78 6.29,6.29 0 0 1 2.4,2.3 6.93,6.93 0 0 1 1,3.589998 0.74,0.74 0 0 1 -0.32,0.56 z M 237,96.939682 a 5.14,5.14 0 0 0 -1.78,3.219998 h 9.56 v -0.229998 a 4.48,4.48 0 0 0 -2.6,-3.62 5,5 0 0 0 -2.17,-0.5 4.68,4.68 0 0 0 -3.01,1.13 z"
     id="path152" />
  <path
     class="cls-3"
     d="m 262.32,94.779682 a 0.89,0.89 0 0 1 0.23,0.61 v 12.609998 a 0.85,0.85 0 0 1 -0.23,0.6 0.85,0.85 0 0 1 -1.45,-0.6 v -1.88 a 5.94,5.94 0 0 1 -2.1,2.13 5.67,5.67 0 0 1 -3.06,0.87 6,6 0 0 1 -3.37,-1 6.79,6.79 0 0 1 -2.36,-2.69 8.47,8.47 0 0 1 -0.85,-3.84 8.28,8.28 0 0 1 0.87,-3.829998 6.68,6.68 0 0 1 2.36,-2.65 6.12,6.12 0 0 1 3.33,-1 6,6 0 0 1 3.08,0.81 5.37,5.37 0 0 1 2.1,2.13 v -1.66 a 0.85,0.85 0 0 1 0.24,-0.61 0.86,0.86 0 0 1 1.21,0 z m -3.82,11.999998 a 5.2,5.2 0 0 0 1.82,-2.13 6.88,6.88 0 0 0 0.66,-3 6.61,6.61 0 0 0 -0.66,-2.999998 5.1,5.1 0 0 0 -1.82,-2.12 4.87,4.87 0 0 0 -5.24,0 5.2,5.2 0 0 0 -1.82,2.08 6.73,6.73 0 0 0 -0.66,2.999998 7,7 0 0 0 0.65,3 5.23,5.23 0 0 0 1.8,2.13 4.73,4.73 0 0 0 2.65,0.77 4.66,4.66 0 0 0 2.62,-0.72 z"
     id="path154" />
  <path
     class="cls-3"
     d="m 268.57,108.60968 a 0.85,0.85 0 0 1 -1.45,-0.6 V 88.999682 a 0.78,0.78 0 0 1 0.24,-0.6 0.84,0.84 0 0 1 1.44,0.6 v 18.999998 a 0.85,0.85 0 0 1 -0.23,0.61 z"
     id="path156" />
  <path
     class="cls-3"
     d="m 276.12,96.149682 v 9.389998 a 2,2 0 0 0 0.39,1.44 1.4,1.4 0 0 0 1,0.38 1.52,1.52 0 0 0 0.42,-0.07 2,2 0 0 1 0.39,-0.07 0.58,0.58 0 0 1 0.44,0.21 0.74,0.74 0 0 1 0.18,0.49 0.78,0.78 0 0 1 -0.45,0.66 2,2 0 0 1 -1.07,0.27 6,6 0 0 1 -1.34,-0.14 2.25,2.25 0 0 1 -1.14,-0.84 3.72,3.72 0 0 1 -0.54,-2.25 v -9.469998 h -2.05 a 0.78,0.78 0 0 1 -0.57,-0.22 0.74,0.74 0 0 1 -0.24,-0.56 0.73,0.73 0 0 1 0.24,-0.56 0.79,0.79 0 0 1 0.57,-0.23 h 2.05 v -3.11 a 0.81,0.81 0 0 1 0.24,-0.6 0.78,0.78 0 0 1 0.6,-0.24 0.82,0.82 0 0 1 0.84,0.84 v 3.11 h 2.8 a 0.76,0.76 0 0 1 0.55,0.25 0.81,0.81 0 0 1 0.24,0.56 0.72,0.72 0 0 1 -0.23,0.55 0.78,0.78 0 0 1 -0.56,0.21 z"
     id="path158" />
  <path
     class="cls-3"
     d="m 293.1,95.999682 a 6.38,6.38 0 0 1 1.24,4.079998 v 7.92 a 0.84,0.84 0 1 1 -1.68,0 v -7.93 a 4.71,4.71 0 0 0 -0.87,-2.999998 3.21,3.21 0 0 0 -2.72,-1.07 4.7,4.7 0 0 0 -2.23,0.56 4.84,4.84 0 0 0 -1.7,1.5 3.54,3.54 0 0 0 -0.64,1.999998 v 7.94 a 0.82,0.82 0 0 1 -0.84,0.84 0.8,0.8 0 0 1 -0.6,-0.24 0.81,0.81 0 0 1 -0.24,-0.6 V 88.999682 a 0.78,0.78 0 0 1 0.24,-0.6 0.8,0.8 0 0 1 0.6,-0.24 0.81,0.81 0 0 1 0.6,0.24 0.78,0.78 0 0 1 0.24,0.6 v 8.21 a 5.89,5.89 0 0 1 2.1,-2 5.51,5.51 0 0 1 2.75,-0.77 4.44,4.44 0 0 1 3.75,1.56 z"
     id="path160" />
  <path
     class="cls-3"
     d="m 206.44,100.71968 h -88.67 a 0.75,0.75 0 0 1 0,-1.499998 h 88.67 a 0.75,0.75 0 0 1 0,1.499998 z"
     id="path162" />
  <path
     class="cls-1"
     d="m 75.66,38.069682 a 55.87,55.87 0 0 0 -12,1.64 68.57,68.57 0 0 1 -8.42,1.43 h -0.56 v 7.74 h 0.65 q 0.38,0 0.75,0 a 10.39,10.39 0 0 1 0,20.78 q -0.37,0 -0.75,0 h -0.65 v 10.75 h 18.93 a 7.54,7.54 0 0 0 -1.38,4.38 7.62,7.62 0 0 0 15.24,0 7.54,7.54 0 0 0 -1.38,-4.38 h 18.06 l 0.08,-0.52 a 58.85,58.85 0 0 0 0.78,-9.27 c -0.01,-22.87 -21.01,-32.55 -29.35,-32.55 z"
     id="path164" />
  <path
     class="cls-2"
     d="m 90.13,83.179682 0.06,0.67 c 0,0.33 0,0.63 0,0.94 a 10.39,10.39 0 0 1 -20.78,0 c 0,-0.3 0,-0.61 0.05,-0.94 l 0.06,-0.67 H 54.69 v 14.92 a 7.63,7.63 0 1 0 0,12.489998 v 12.75 l 0.5,0.09 c 0.73,0.14 1.52,0.31 2.37,0.49 a 58.15,58.15 0 0 0 12.91,1.6 c 7.15,0 14.3,-4.61 20.67,-13.34 a 77.39,77.39 0 0 0 12.33,-28.259998 l 0.16,-0.74 z"
     id="path166" />
  <path
     class="cls-1"
     d="m 50.31,93.999682 c 0.3,0 0.61,0 0.94,0 l 0.67,0.07 v -10.89 H 32.2 a 7.62,7.62 0 1 0 -12.48,0 H 1.38 l 0.16,0.74 a 77.56,77.56 0 0 0 12.33,28.259998 c 6.37,8.73 13.52,13.34 20.67,13.34 a 58.07,58.07 0 0 0 12.91,-1.6 c 1.51,-0.32 2.81,-0.6 3.93,-0.72 l 0.54,-0.06 v -8.51 l -0.67,0.06 c -0.33,0 -0.64,0 -0.94,0 a 10.39,10.39 0 1 1 0,-20.769998 z"
     id="path168" />
  <path
     class="cls-2"
     d="m 56.09,51.619682 a 7.6,7.6 0 0 0 -4.17,1.24 v -11.6 h -0.59 a 58.43,58.43 0 0 1 -10,-1.52 56.05,56.05 0 0 0 -12,-1.64 c -8.33,-0.03 -29.33,9.65 -29.33,32.52 a 59,59 0 0 0 0.78,9.27 l 0.09,0.52 h 14.81 l -0.06,-0.67 c 0,-0.33 0,-0.64 0,-0.94 a 10.39,10.39 0 1 1 20.78,0 c 0,0.3 0,0.61 -0.05,0.94 l -0.06,0.67 h 15.63 v -14.79 a 7.62,7.62 0 1 0 4.17,-14 z"
     id="path170" />
  <path
     class="cls-3"
     d="m 90.56,1.6196819 c 0,-0.15 -17,-1.34000005 -26.67,8.32 C 55.42,18.409682 55.33,32.449682 55.5,35.859682 l 0.84,-0.84 3.29,-3.32 6.58,-6.58 c 2.19,-2.19 4.41,-4.35 6.58,-6.55 1.09,-1.09 2.17,-2.2 3.21,-3.34 0.53,-0.56 1,-1.15 1.52,-1.75 a 14.12,14.12 0 0 0 1.33,-1.94 8.06,8.06 0 0 1 -0.43,2.46 16.71,16.71 0 0 1 -0.92,2.28 31.29,31.29 0 0 1 -2.5,4.14 52.45,52.45 0 0 1 -6.22,7.31 59.06,59.06 0 0 1 -7.31,6.17 43.8,43.8 0 0 1 -4.08,2.57 l -0.47,0.24 c 4.23,0.12 17.27,-0.37 25.3,-8.41 9.69,-9.66 8.27,-26.1300001 8.34,-26.6800001 z"
     id="path172" />
  <path
     class="cls-3"
     d="m 53.7,36.079682 c 0,-8.9 -1,-23.39 -8.39,-34.6100001 A 3.29,3.29 0 0 0 40.69,0.58968185 v 0 a 3.29,3.29 0 0 0 -1,4.24000005 c 3.69,7.0500001 9.85,19.8300001 10.06,31.2600001 a 0.6,0.6 0 0 0 0.6,0.6 h 2.78 a 0.61,0.61 0 0 0 0.57,-0.61 z"
     id="path174" />
  <path
     class="cls-3"
     d="m 138.46,50.809682 a 10.37,10.37 0 0 1 3.6,3.91 11.28,11.28 0 0 1 1.34,5.45 11.59,11.59 0 0 1 -1.34,5.5 10.53,10.53 0 0 1 -3.6,4 9,9 0 0 1 -5,1.46 H 124 v 11.14 a 2.45,2.45 0 0 1 -0.65,1.72 2.38,2.38 0 0 1 -3.35,0.01 2.49,2.49 0 0 1 -0.63,-1.75 v -30.46 a 2.42,2.42 0 0 1 2.42,-2.42 h 11.71 a 9.09,9.09 0 0 1 4.96,1.44 z m -2.46,14.83 a 6.11,6.11 0 0 0 1.85,-2.34 7.4,7.4 0 0 0 0.68,-3.13 6.63,6.63 0 0 0 -1.49,-4.37 4.52,4.52 0 0 0 -3.53,-1.8 H 124 v 12.53 h 9.49 a 4.06,4.06 0 0 0 2.51,-0.89 z"
     id="path176" />
  <path
     class="cls-3"
     d="m 179.56,76.269682 a 16.64,16.64 0 0 1 -6.08,6.53 17.26,17.26 0 0 1 -17.56,0 16.64,16.64 0 0 1 -6.08,-6.53 20.48,20.48 0 0 1 0,-18.47 16.74,16.74 0 0 1 6.08,-6.54 17.26,17.26 0 0 1 17.56,0 16.74,16.74 0 0 1 6.08,6.54 20.48,20.48 0 0 1 0,18.47 z m -4.56,-16.08 a 11.83,11.83 0 0 0 -4.21,-4.79 11.06,11.06 0 0 0 -6.13,-1.74 11.2,11.2 0 0 0 -6.13,1.71 11.73,11.73 0 0 0 -4.22,4.77 15.33,15.33 0 0 0 -1.47,6.86 15.14,15.14 0 0 0 1.51,6.84 11.88,11.88 0 0 0 4.22,4.8 11.67,11.67 0 0 0 12.26,0 11.85,11.85 0 0 0 4.21,-4.8 16.15,16.15 0 0 0 0,-13.68 z"
     id="path178" />
  <path
     class="cls-3"
     d="m 220.52,50.049682 a 2.25,2.25 0 0 1 0.7,1.69 v 30.53 a 2.38,2.38 0 0 1 -2.47,2.43 2.53,2.53 0 0 1 -1.82,-0.68 2.34,2.34 0 0 1 -0.7,-1.75 v -23.36 l -9.79,14.83 a 2.86,2.86 0 0 1 -0.89,0.76 1.76,1.76 0 0 1 -1.08,0.25 1.71,1.71 0 0 1 -1,-0.25 2.82,2.82 0 0 1 -0.88,-0.76 l -9.84,-15.29 v 23.82 a 2.49,2.49 0 0 1 -0.63,1.75 2.21,2.21 0 0 1 -1.69,0.68 2.13,2.13 0 0 1 -1.64,-0.68 2.45,2.45 0 0 1 -0.63,-1.75 v -30.53 a 2.44,2.44 0 0 1 2.47,-2.42 2.52,2.52 0 0 1 1.18,0.3 2.55,2.55 0 0 1 0.94,0.81 l 12,18.12 12.11,-18.12 a 2.42,2.42 0 0 1 2,-1.11 2.61,2.61 0 0 1 1.66,0.73 z"
     id="path180" />
  <path
     class="cls-3"
     d="m 262,50.049682 a 2.26,2.26 0 0 1 0.71,1.69 v 30.53 a 2.38,2.38 0 0 1 -2.48,2.43 2.51,2.51 0 0 1 -1.81,-0.68 2.34,2.34 0 0 1 -0.71,-1.75 v -23.36 l -9.79,14.83 a 2.93,2.93 0 0 1 -0.88,0.76 1.81,1.81 0 0 1 -1.09,0.25 1.66,1.66 0 0 1 -1,-0.25 2.86,2.86 0 0 1 -0.89,-0.76 l -9.84,-15.29 v 23.82 a 2.49,2.49 0 0 1 -0.63,1.75 2.2,2.2 0 0 1 -1.69,0.68 2.15,2.15 0 0 1 -1.64,-0.68 2.49,2.49 0 0 1 -0.63,-1.75 v -30.53 a 2.46,2.46 0 0 1 2.47,-2.42 2.56,2.56 0 0 1 1.19,0.3 2.45,2.45 0 0 1 0.93,0.81 l 12,18.12 12.12,-18.12 a 2.4,2.4 0 0 1 2,-1.11 2.57,2.57 0 0 1 1.66,0.73 z"
     id="path182" />
  <path
     class="cls-2"
     d="m 292.94,71.999682 a 2.43,2.43 0 0 1 -1.67,0.63 h -17.76 a 8.77,8.77 0 0 0 2.8,5.91 8.57,8.57 0 0 0 6,2.22 9.33,9.33 0 0 0 3.93,-0.71 10,10 0 0 0 2.68,-1.81 2.77,2.77 0 0 1 1.46,-0.46 1.9,1.9 0 0 1 1.44,0.61 2,2 0 0 1 0.58,1.41 2.47,2.47 0 0 1 -1,1.92 11.88,11.88 0 0 1 -3.88,2.47 12.85,12.85 0 0 1 -4.95,1 14.57,14.57 0 0 1 -7.19,-1.72 12,12 0 0 1 -4.8,-4.79 14.28,14.28 0 0 1 -1.69,-7 15.38,15.38 0 0 1 1.74,-7.45 12.79,12.79 0 0 1 4.6,-4.92 11.87,11.87 0 0 1 12.19,0 12.73,12.73 0 0 1 4.54,4.59 13.1,13.1 0 0 1 1.76,6.56 2.13,2.13 0 0 1 -0.78,1.54 z m -16.51,-8.32 a 7.83,7.83 0 0 0 -2.72,4.92 h 14.89 v -0.41 a 6.19,6.19 0 0 0 -2.4,-4.39 7.6,7.6 0 0 0 -4.87,-1.71 7.8,7.8 0 0 0 -4.9,1.59 z"
     id="path184" />
  <path
     class="cls-3"
     d="m 229.3,89.469682 a 0.85,0.85 0 0 1 0.24,0.63 v 17.899998 a 1,1 0 0 1 -0.28,0.63 0.88,0.88 0 0 1 -0.62,0.24 0.89,0.89 0 0 1 -0.62,-0.25 0.84,0.84 0 0 1 -0.25,-0.62 v -8.369998 h -11.38 v 8.369998 a 1,1 0 0 1 -0.28,0.62 0.87,0.87 0 0 1 -0.62,0.25 0.81,0.81 0 0 1 -0.86,-0.87 V 90.099682 a 0.82,0.82 0 0 1 0.25,-0.63 0.89,0.89 0 0 1 0.64,-0.24 0.84,0.84 0 0 1 0.62,0.25 0.83,0.83 0 0 1 0.25,0.62 v 7.9 h 11.38 v -7.9 a 0.81,0.81 0 0 1 0.27,-0.62 0.93,0.93 0 0 1 1.26,0 z"
     id="path186" />
  <path
     class="cls-3"
     d="m 246.24,101.42968 a 0.82,0.82 0 0 1 -0.59,0.24 h -10.59 a 6.61,6.61 0 0 0 0.68,3 5.31,5.31 0 0 0 2,2.1 5.73,5.73 0 0 0 3,0.77 5.13,5.13 0 0 0 2.41,-0.56 5,5 0 0 0 1.71,-1.43 0.94,0.94 0 0 1 0.59,-0.25 0.69,0.69 0 0 1 0.5,0.22 0.71,0.71 0 0 1 0.23,0.51 0.84,0.84 0 0 1 -0.28,0.58 7.09,7.09 0 0 1 -2.26,1.8 6.27,6.27 0 0 1 -2.87,0.7 7.63,7.63 0 0 1 -3.81,-0.93 6.43,6.43 0 0 1 -2.58,-2.59 7.78,7.78 0 0 1 -0.93,-3.85 8.62,8.62 0 0 1 0.91,-3.999998 6.66,6.66 0 0 1 2.43,-2.63 6.11,6.11 0 0 1 3.22,-0.91 6.62,6.62 0 0 1 3.15,0.78 6.29,6.29 0 0 1 2.4,2.3 6.93,6.93 0 0 1 1,3.589998 0.74,0.74 0 0 1 -0.32,0.56 z M 237,96.939682 a 5.14,5.14 0 0 0 -1.78,3.219998 h 9.56 v -0.229998 a 4.48,4.48 0 0 0 -2.6,-3.62 5,5 0 0 0 -2.17,-0.5 4.68,4.68 0 0 0 -3.01,1.13 z"
     id="path188" />
  <path
     class="cls-3"
     d="m 262.32,94.779682 a 0.89,0.89 0 0 1 0.23,0.61 v 12.609998 a 0.85,0.85 0 0 1 -0.23,0.6 0.85,0.85 0 0 1 -1.45,-0.6 v -1.88 a 5.94,5.94 0 0 1 -2.1,2.13 5.67,5.67 0 0 1 -3.06,0.87 6,6 0 0 1 -3.37,-1 6.79,6.79 0 0 1 -2.36,-2.69 8.47,8.47 0 0 1 -0.85,-3.84 8.28,8.28 0 0 1 0.87,-3.829998 6.68,6.68 0 0 1 2.36,-2.65 6.12,6.12 0 0 1 3.33,-1 6,6 0 0 1 3.08,0.81 5.37,5.37 0 0 1 2.1,2.13 v -1.66 a 0.85,0.85 0 0 1 0.24,-0.61 0.86,0.86 0 0 1 1.21,0 z m -3.82,11.999998 a 5.2,5.2 0 0 0 1.82,-2.13 6.88,6.88 0 0 0 0.66,-3 6.61,6.61 0 0 0 -0.66,-2.999998 5.1,5.1 0 0 0 -1.82,-2.12 4.87,4.87 0 0 0 -5.24,0 5.2,5.2 0 0 0 -1.82,2.08 6.73,6.73 0 0 0 -0.66,2.999998 7,7 0 0 0 0.65,3 5.23,5.23 0 0 0 1.8,2.13 4.73,4.73 0 0 0 2.65,0.77 4.66,4.66 0 0 0 2.62,-0.72 z"
     id="path190" />
  <path
     class="cls-3"
     d="m 268.57,108.60968 a 0.85,0.85 0 0 1 -1.45,-0.6 V 88.999682 a 0.78,0.78 0 0 1 0.24,-0.6 0.84,0.84 0 0 1 1.44,0.6 v 18.999998 a 0.85,0.85 0 0 1 -0.23,0.61 z"
     id="path192" />
  <path
     class="cls-3"
     d="m 276.12,96.149682 v 9.389998 a 2,2 0 0 0 0.39,1.44 1.4,1.4 0 0 0 1,0.38 1.52,1.52 0 0 0 0.42,-0.07 2,2 0 0 1 0.39,-0.07 0.58,0.58 0 0 1 0.44,0.21 0.74,0.74 0 0 1 0.18,0.49 0.78,0.78 0 0 1 -0.45,0.66 2,2 0 0 1 -1.07,0.27 6,6 0 0 1 -1.34,-0.14 2.25,2.25 0 0 1 -1.14,-0.84 3.72,3.72 0 0 1 -0.54,-2.25 v -9.469998 h -2.05 a 0.78,0.78 0 0 1 -0.57,-0.22 0.74,0.74 0 0 1 -0.24,-0.56 0.73,0.73 0 0 1 0.24,-0.56 0.79,0.79 0 0 1 0.57,-0.23 h 2.05 v -3.11 a 0.81,0.81 0 0 1 0.24,-0.6 0.78,0.78 0 0 1 0.6,-0.24 0.82,0.82 0 0 1 0.84,0.84 v 3.11 h 2.8 a 0.76,0.76 0 0 1 0.55,0.25 0.81,0.81 0 0 1 0.24,0.56 0.72,0.72 0 0 1 -0.23,0.55 0.78,0.78 0 0 1 -0.56,0.21 z"
     id="path194" />
  <path
     class="cls-3"
     d="m 293.1,95.999682 a 6.38,6.38 0 0 1 1.24,4.079998 v 7.92 a 0.84,0.84 0 1 1 -1.68,0 v -7.93 a 4.71,4.71 0 0 0 -0.87,-2.999998 3.21,3.21 0 0 0 -2.72,-1.07 4.7,4.7 0 0 0 -2.23,0.56 4.84,4.84 0 0 0 -1.7,1.5 3.54,3.54 0 0 0 -0.64,1.999998 v 7.94 a 0.82,0.82 0 0 1 -0.84,0.84 0.8,0.8 0 0 1 -0.6,-0.24 0.81,0.81 0 0 1 -0.24,-0.6 V 88.999682 a 0.78,0.78 0 0 1 0.24,-0.6 0.8,0.8 0 0 1 0.6,-0.24 0.81,0.81 0 0 1 0.6,0.24 0.78,0.78 0 0 1 0.24,0.6 v 8.21 a 5.89,5.89 0 0 1 2.1,-2 5.51,5.51 0 0 1 2.75,-0.77 4.44,4.44 0 0 1 3.75,1.56 z"
     id="path196" />
  <path
     class="cls-3"
     d="m 206.44,100.71968 h -88.67 a 0.75,0.75 0 0 1 0,-1.499998 h 88.67 a 0.75,0.75 0 0 1 0,1.499998 z"
     id="path198" />
  <g
     aria-label="TM"
     id="text5653"
     style="font-size:13.3333px;line-height:1.25"
     transform="translate(0,-3.1814397e-4)">
    <path
       d="m 305.37695,50.143911 h -3.46353 v 8.548155 h -1.28906 v -8.548155 h -3.46353 V 48.99808 h 8.21612 z"
       style="font-family:'.Muna PUA';-inkscape-font-specification:'.Muna PUA'"
       id="path2186" />
    <path
       d="m 315.32484,58.692066 h -1.28905 v -8.352843 l -2.69531,5.683579 h -0.76823 l -2.67577,-5.683579 v 8.352843 h -1.20443 V 48.99808 h 1.75781 l 2.58463,5.397122 2.49999,-5.397122 h 1.79036 z"
       style="font-family:'.Muna PUA';-inkscape-font-specification:'.Muna PUA'"
       id="path2188" />
  </g>
  <metadata
     id="metadata65139">
    <rdf:RDF>
      <cc:Work
         rdf:about="">
        <dc:title>Artboard 1sd</dc:title>
      </cc:Work>
    </rdf:RDF>
  </metadata>
</svg>
