<svg id="Capa_1" data-name="Capa 1" xmlns="http://www.w3.org/2000/svg" viewBox="0 0 49.65 49.65"><defs><style>.cls-1{fill:#686868;}</style></defs><title>Artboard 1f</title><path class="cls-1" d="M24.83,0A24.83,24.83,0,1,0,49.65,24.83,24.86,24.86,0,0,0,24.83,0ZM35.9,19.14c0,.25,0,.5,0,.75,0,7.55-5.75,16.25-16.26,16.25a16.18,16.18,0,0,1-8.76-2.56,12.26,12.26,0,0,0,1.36.08,11.5,11.5,0,0,0,7.1-2.45,5.73,5.73,0,0,1-5.34-4,5.49,5.49,0,0,0,1.08.1,5.71,5.71,0,0,0,1.5-.19A5.73,5.73,0,0,1,12,21.54v-.07a5.54,5.54,0,0,0,2.59.71,5.72,5.72,0,0,1-1.77-7.62,16.26,16.26,0,0,0,11.78,6,5.72,5.72,0,0,1,9.73-5.22A11.29,11.29,0,0,0,38,13.93a5.76,5.76,0,0,1-2.51,3.16,11.31,11.31,0,0,0,3.28-.9A11.42,11.42,0,0,1,35.9,19.14Z"/></svg>