<svg id="Layer_1" data-name="Layer 1" xmlns="http://www.w3.org/2000/svg" viewBox="0 0 288 288"><defs><style>.cls-1{fill:#fcfcfc;}.cls-1,.cls-2,.cls-3,.cls-4,.cls-5{stroke:#353c51;stroke-linecap:round;stroke-linejoin:round;stroke-width:4px;}.cls-2{fill:#9bcbdd;}.cls-3{fill:#33bcaf;}.cls-4{fill:#8f98a8;}.cls-5,.cls-6{fill:#353c51;opacity:0.25;}</style></defs><title>Artboard 3sd</title><path class="cls-1" d="M51.65,194a105,105,0,0,0,184.7,0Z"/><path class="cls-2" d="M249,144A105,105,0,1,0,51.65,194h184.7A104.5,104.5,0,0,0,249,144Z"/><polygon class="cls-3" points="104.98 94 88.31 118.59 103.89 118.59 120.56 94 104.98 94"/><polygon class="cls-1" points="120.56 94 103.89 118.59 128.47 118.59 145.15 94 120.56 94"/><polygon class="cls-1" points="81.3 94 81.3 118.59 88.31 118.59 104.98 94 81.3 94"/><polygon class="cls-1" points="206.71 94 200.88 94 184.21 118.59 206.71 118.59 206.71 94"/><polygon class="cls-3" points="145.15 94 128.47 118.59 144.05 118.59 160.72 94 145.15 94"/><polygon class="cls-3" points="185.31 94 168.64 118.59 184.21 118.59 200.88 94 185.31 94"/><polygon class="cls-1" points="160.72 94 144.05 118.59 168.64 118.59 185.31 94 160.72 94"/><rect class="cls-4" x="97.07" y="149.74" width="95.08" height="11.48"/><polygon class="cls-4" points="88.88 185.8 70.84 185.8 94.61 118.59 112.65 118.59 88.88 185.8"/><rect class="cls-1" x="65.52" y="184.98" width="28.69" height="9.02" rx="4.51"/><polygon class="cls-4" points="199.12 185.8 217.16 185.8 193.38 118.59 175.35 118.59 199.12 185.8"/><rect class="cls-1" x="193.8" y="184.98" width="28.69" height="9.02" rx="4.51" transform="translate(416.28 378.98) rotate(180)"/><path class="cls-5" d="M53.09,195.78,56,200.7c0,.16,3.25.3,10.85.3H220.24c7.6,0,11.76-.14,11.76-.3l2-4.92Z"/><path class="cls-5" d="M94.09,119.78l.26,4.92c0,.16.28.3,1,.3h13.49c.67,0,1-.14,1-.3l.18-4.92Z"/><path class="cls-5" d="M178.09,119.78l.26,4.92c0,.16.28.3,1,.3h13.49c.67,0,1-.14,1-.3l.18-4.92Z"/><rect class="cls-6" x="101" y="150" width="86" height="6"/></svg>